<?xml version="1.0" encoding="iso-8859-1"?>
<!-- Generator: Adobe Illustrator 19.0.0, SVG Export Plug-In . SVG Version: 6.00 Build 0)  -->
<svg version="1.1" id="Capa_1" xmlns="http://www.w3.org/2000/svg" xmlns:xlink="http://www.w3.org/1999/xlink" x="0px" y="0px"
	 viewBox="0 0 512.001 512.001" style="enable-background:new 0 0 512.001 512.001;" xml:space="preserve">
<linearGradient id="SVGID_1_" gradientUnits="userSpaceOnUse" x1="0.0285" y1="257.8992" x2="512.1273" y2="257.8992" gradientTransform="matrix(0.9997 0 0 -0.9997 -0.0124 513.8342)">
	<stop  offset="0" style="stop-color:#ed8415"/>
	<stop  offset="0.021" style="stop-color:#ed8415"/>
	<stop  offset="0.293" style="stop-color:#ed8415"/>
	<stop  offset="0.554" style="stop-color:#ed8415"/>
	<stop  offset="0.796" style="stop-color:#ed8415"/>
	<stop  offset="1" style="stop-color:#ed8415"/>
</linearGradient>
<path style="fill:url(#SVGID_1_);" d="M491.864,102.621c-0.383-0.434-0.785-0.85-1.204-1.248l-83.549-79.374
	c-14.93-14.184-34.493-21.996-55.087-21.996h-86.815c-0.148-0.002-0.296-0.001-0.445,0h-20.378c-0.24-0.004-0.48-0.004-0.72,0
	h-83.206c-20.523,0-40.039,7.766-54.952,21.866l-84.03,79.46c-0.42,0.396-0.823,0.812-1.207,1.244
	c-11.374,12.799-18.013,28.36-19.778,44.402c-0.277,1.327-0.424,2.702-0.424,4.112c0,0.345,0.009,0.688,0.026,1.028
	c-0.762,16.963,3.892,34.187,14.122,49.015L207.37,487.105c0.175,0.258,0.354,0.512,0.541,0.761
	c11.324,15.187,28.626,23.96,47.54,24.127c0.179,0.005,0.359,0.008,0.54,0.008c0.005,0,0.01,0,0.015,0s0.01,0,0.015,0
	c0.182,0,0.364-0.003,0.545-0.008c18.911-0.172,36.21-8.947,47.53-24.135c0.186-0.249,0.365-0.503,0.539-0.76l120.77-178.859
	c6.18-9.152,3.77-21.581-5.382-27.761c-9.154-6.182-21.582-3.77-27.761,5.382L290.388,436.736l66.218-265.655h112.241
	c-1.062,2.521-2.395,4.966-4.005,7.291c-0.044,0.063-0.087,0.126-0.13,0.189l-16.421,24.319c-6.18,9.152-3.77,21.582,5.382,27.761
	c9.155,6.179,21.581,3.768,27.761-5.382l16.367-24.24C518.726,170.68,516.293,130.235,491.864,102.621z M379.567,50.991
	l82.858,78.717c0.387,0.455,0.762,0.916,1.125,1.384H352.506l-52.802-91.099h52.321C362.32,39.993,372.102,43.899,379.567,50.991z
	 M306.284,131.092H204.272l50.326-89.173L306.284,131.092z M132.985,50.927c7.456-7.051,17.215-10.934,27.476-10.934h49.302
	l-51.413,91.099H48.535c0.36-0.46,0.731-0.914,1.114-1.361L132.985,50.927z M47.296,178.655l-0.129-0.188
	c-1.63-2.354-2.977-4.831-4.046-7.385h111.327l66.902,265.275L47.296,178.655z M255.892,409.787l-60.201-238.704h119.702
	L255.892,409.787z"/>
<g>
</g>
<g>
</g>
<g>
</g>
<g>
</g>
<g>
</g>
<g>
</g>
<g>
</g>
<g>
</g>
<g>
</g>
<g>
</g>
<g>
</g>
<g>
</g>
<g>
</g>
<g>
</g>
<g>
</g>
</svg>
