<?xml version="1.0" encoding="iso-8859-1"?>
<!-- Generator: Adobe Illustrator 19.0.0, SVG Export Plug-In . SVG Version: 6.00 Build 0)  -->
<svg version="1.1" id="Capa_1" xmlns="http://www.w3.org/2000/svg" xmlns:xlink="http://www.w3.org/1999/xlink" x="0px" y="0px"
	 viewBox="0 0 512 512" style="enable-background:new 0 0 512 512;" xml:space="preserve">
<linearGradient id="SVGID_1_" gradientUnits="userSpaceOnUse" x1="0" y1="258" x2="512" y2="258" gradientTransform="matrix(1 0 0 -1 0 514)">
	<stop  offset="0" style="stop-color:#00F2FE"/>
	<stop  offset="0.021" style="stop-color:#03EFFE"/>
	<stop  offset="0.293" style="stop-color:#24D2FE"/>
	<stop  offset="0.554" style="stop-color:#3CBDFE"/>
	<stop  offset="0.796" style="stop-color:#4AB0FE"/>
	<stop  offset="1" style="stop-color:#4FACFE"/>
</linearGradient>
<path style="fill:url(#SVGID_1_);" d="M432,511.5h-58c-9.563,0-18.324-4.396-24.036-12.063c-5.644-7.573-7.399-17.505-4.695-26.566
	C353.087,446.673,356,426.231,356,419.5c0-19.851-16.149-36-36-36s-36,16.149-36,36c0,6.731,2.913,27.173,10.731,53.37
	c2.704,9.063,0.948,18.994-4.695,26.567C284.324,507.104,275.563,511.5,266,511.5h-58c-44.112,0-80-35.888-80-80v-55.887
	c-21.511,5.419-40.931,7.887-52,7.887c-41.906,0-76-34.093-76-76s34.094-76,76-76c11.729,0,31.257,3.356,52,8.809V208.5
	c0-44.112,35.888-80,80-80h44.809c-5.452-20.742-8.809-40.271-8.809-52c0-41.907,34.094-76,76-76s76,34.093,76,76
	c0,11.729-3.356,31.257-8.809,52H432c44.112,0,80,35.888,80,80v122c0,11.046-8.954,20-20,20s-20-8.954-20-20v-122
	c0-22.056-17.944-40-40-40h-58c-9.563,0-18.324-4.396-24.036-12.063c-5.644-7.573-7.399-17.505-4.695-26.566
	C353.087,103.673,356,83.231,356,76.5c0-19.851-16.149-36-36-36s-36,16.149-36,36c0,6.731,2.913,27.173,10.731,53.37
	c2.704,9.063,0.948,18.994-4.695,26.567C284.324,164.104,275.563,168.5,266,168.5h-58c-22.056,0-40,17.944-40,40v45
	c0,9.563-4.396,18.325-12.063,24.037c-7.574,5.644-17.508,7.398-26.565,4.695C103.172,274.414,82.73,271.5,76,271.5
	c-19.851,0-36,16.149-36,36s16.149,36,36,36c8.338,0,29.433-2.593,53.371-9.736c9.061-2.706,18.992-0.95,26.565,4.694
	C163.604,344.17,168,352.932,168,362.495V431.5c0,22.056,17.944,40,40,40h44.809c-5.452-20.742-8.809-40.271-8.809-52
	c0-41.907,34.094-76,76-76s76,34.093,76,76c0,11.729-3.356,31.257-8.809,52H432c22.056,0,40-17.944,40-40c0-11.046,8.954-20,20-20
	s20,8.954,20,20C512,475.612,476.112,511.5,432,511.5z"/>
<g>
</g>
<g>
</g>
<g>
</g>
<g>
</g>
<g>
</g>
<g>
</g>
<g>
</g>
<g>
</g>
<g>
</g>
<g>
</g>
<g>
</g>
<g>
</g>
<g>
</g>
<g>
</g>
<g>
</g>
</svg>
