<?xml version="1.0" encoding="utf-8"?>
<!-- Generator: Adobe Illustrator 22.1.0, SVG Export Plug-In . SVG Version: 6.00 Build 0)  -->
<svg version="1.1" id="Layer_1" xmlns="http://www.w3.org/2000/svg" xmlns:xlink="http://www.w3.org/1999/xlink" x="0px" y="0px"
	 viewBox="0 0 200 200" style="enable-background:new 0 0 200 200;" xml:space="preserve">
<style type="text/css">
	.st0{fill:#D21728;}
	.st1{fill:#FFFFFF;}
</style>
<circle id="Oval-2_1_" class="st0" cx="100" cy="100" r="100"/>
<path class="st1" d="M50.6,38.7c1.9,0.4,3.8,0.9,5.7,1.3c1.6,0.4,3.2,0.9,4.8,1.3c1.6,0.4,3.2,0.8,4.8,1.1c0.9,0.2,1.9,0.4,2.8,0.6
	c1.9,0.5,3.8,1,5.7,1.4c1.6,0.4,3.2,0.7,4.8,1.1c1.6,0.4,3.3,0.8,4.9,1.2c1.7,0.4,3.5,0.9,5.2,1.3c1.6,0.4,3.2,0.8,4.9,1.2
	c1.7,0.4,3.4,0.9,5.1,1.3c2.4,0.6,4.9,1.1,7.3,1.7c2.3,0.5,4.6,1,6.9,1.6c2.3,0.6,4.5,1.2,6.7,1.8c1.7,0.4,3.4,0.8,5,1.2
	c1.7,0.4,3.3,0.8,5,1.3c1.2,0.3,2.5,0.5,3.6,1.1c2,1.1,3.9,2.4,5.7,3.8c3,2.1,5.9,4.3,8.8,6.4c0.9,0.7,2.1,1.1,2.9,1.9
	c1.8,1.5,1.9,3.8,0.6,5.7c-4.2,6.1-8.4,12.2-12.5,18.3c-2.1,3.1-4.1,6.2-6.2,9.2c-1.8,2.7-3.7,5.3-5.6,7.9
	c-2.9,4.2-5.8,8.3-8.7,12.5c-1.2,1.8-2.3,3.6-3.6,5.3c-1.6,2.4-3.3,4.7-4.9,7c-2.4,3.5-4.6,7-7,10.4c-2.8,4.1-5.8,8.3-8.6,12.4
	c-0.8,1.2-2,1.6-3.4,1.4c-1.2-0.2-2-1-2.4-2.3c-1.4-3.8-2.9-7.5-4.3-11.3c-0.7-2-1.2-4.1-1.9-6.2c-0.7-2-1.4-3.9-2.2-5.8
	c-1.1-2.9-2.2-5.8-3.3-8.8c-0.9-2.5-1.9-5-2.8-7.5c-0.5-1.5-0.9-3.1-1.4-4.6c-1.3-3.5-2.7-6.9-3.9-10.4c-1.4-3.8-2.6-7.7-3.9-11.6
	c-0.8-2.4-1.8-4.8-2.7-7.2c-0.8-2.1-1.5-4.1-2.3-6.2c-1.1-2.9-2.2-5.8-3.2-8.8c-0.7-2-1.3-4.1-2.1-6.1c-1.1-3-2.2-5.9-3.3-8.9
	c-1.1-3-2.2-6-3.2-9c-0.5-1.5-1-3-1.2-4.5C47.1,40.2,48.3,38.4,50.6,38.7z M58.9,47.6c0,0.1-0.1,0.2-0.1,0.3c1.4,1.5,2.7,3.1,4,4.6
	c2.5,2.9,4.9,5.9,7.3,8.9c2.5,3.1,5.1,6.1,7.7,9.2c2.4,2.9,4.8,5.8,7.2,8.7c2.3,2.7,4.6,5.4,6.9,8.1c1.9,2.3,3.6,4.6,5.4,7
	c0.9,1.1,0.9,1.1,1.9,0c1.4-1.6,2.8-3.2,4.2-4.7c2.2-2.4,4.4-4.8,6.6-7.2c1.2-1.3,2.4-2.6,3.6-3.9c1.6-1.7,3.2-3.5,4.8-5.2
	c1.2-1.3,2.4-2.5,3.6-3.8c1.7-1.7,3.3-3.5,5.2-5.4C104.2,58.6,81.5,53.1,58.9,47.6z M56.1,52.4c-0.1,0-0.3,0-0.4,0.1
	c5.8,15.9,11.4,31.8,17.2,47.7C78.8,116.1,84.3,132,90,148c0.1,0,0.2-0.1,0.4-0.1c0-0.4,0-0.9,0.1-1.3c0.2-2.1,0.4-4.3,0.6-6.4
	c0.3-2.5,0.7-4.9,0.9-7.4c0.3-3.8,0.5-7.5,0.9-11.3c0.4-3.9,0.9-7.7,1.4-11.6c0.2-2.2,0.4-4.5,0.6-6.7c0-0.3,0.2-0.5,0.2-0.8
	c0-1.1,0.4-2.4-0.1-3.2c-1.2-1.9-2.8-3.5-4.2-5.3c-2.8-3.3-5.5-6.6-8.3-9.9c-1.9-2.2-3.8-4.4-5.6-6.7c-1.4-1.7-2.7-3.5-4.1-5.2
	c-0.9-1.1-1.8-2.1-2.7-3.1c-1.9-2.3-3.6-4.6-5.5-6.9C61.7,58.8,58.9,55.6,56.1,52.4z M95.3,147.8c15.5-22.7,30.9-45.2,46.2-67.6
	c-0.1-0.1-0.2-0.2-0.2-0.3c-0.3,0.1-0.6,0.2-0.9,0.4c-1.7,0.9-3.4,1.8-5.1,2.7c-2.9,1.5-5.9,3.1-8.8,4.6c-3,1.6-5.9,3.1-8.9,4.7
	c-2.5,1.3-5.1,2.5-7.6,3.8c-2.9,1.5-5.8,3.1-8.7,4.6c-0.4,0.2-0.9,0.6-0.9,1c-0.4,2.5-0.7,5.1-1,7.6c-0.3,2.4-0.4,4.9-0.6,7.3
	c-0.1,1.6-0.3,3.3-0.5,4.9c-0.4,3.7-0.9,7.4-1.3,11.1c-0.3,2.3-0.4,4.7-0.6,7.1c0,0.3-0.2,0.5-0.2,0.8
	C95.7,142.9,95.5,145.2,95.3,147.8z M142.9,73.5c-0.4-0.4-0.8-0.8-1.2-1.1c-1.7-1.1-3.4-2.2-5.1-3.3c-1.3-0.9-2.6-1.8-3.9-2.7
	c-0.2-0.2-0.8-0.1-1,0c-1.5,1.5-3,2.9-4.4,4.5c-1.8,1.9-3.5,3.9-5.3,5.9c-1.2,1.4-2.5,2.7-3.8,4c-2.1,2.2-4.1,4.3-6.2,6.5
	c-0.9,0.9-1.7,1.8-2.6,2.7c0.1,0.2,0.3,0.4,0.4,0.5C120.9,84.9,131.8,79.3,142.9,73.5z"/>
</svg>
