<svg height="512pt" viewBox="0 0 512 512" width="512pt" xmlns="http://www.w3.org/2000/svg" xmlns:xlink="http://www.w3.org/1999/xlink"><linearGradient id="a" gradientUnits="userSpaceOnUse" x1="0" x2="512" y1="256" y2="256"><stop offset="0" stop-color="#00f2fe"/><stop offset=".0208" stop-color="#03effe"/><stop offset=".2931" stop-color="#24d2fe"/><stop offset=".5538" stop-color="#3cbdfe"/><stop offset=".7956" stop-color="#4ab0fe"/><stop offset="1" stop-color="#4facfe"/></linearGradient><path d="m464.152344 13.472656c-24.386719-8.6875-56.40625-13.472656-90.152344-13.472656s-65.765625 4.785156-90.152344 13.472656c-39.546875 14.089844-47.847656 34.1875-47.847656 48.566406v186.484376c-2.472656-1.042969-5.074219-2.0625-7.847656-3.050782-24.386719-8.6875-56.40625-13.472656-90.152344-13.472656-33.644531 0-65.734375 5.003906-90.359375 14.085938-39.375 14.519531-47.640625 34.675781-47.640625 49.027343 0 .644531.0234375 1.308594.0585938 1.976563-.0234376.390625-.0585938.777344-.0585938 1.175781v151.695313c0 14.378906 8.300781 34.476562 47.847656 48.566406 24.386719 8.6875 56.40625 13.472656 90.152344 13.472656s65.765625-4.785156 90.152344-13.472656c11.914062-4.246094 20.976562-9.039063 27.847656-14.054688 6.871094 5.015625 15.933594 9.808594 27.847656 14.054688 24.386719 8.6875 56.40625 13.472656 90.152344 13.472656s65.765625-4.785156 90.152344-13.472656c39.546875-14.089844 47.847656-34.1875 47.847656-48.566406v-387.921876c0-14.378906-8.300781-34.476562-47.847656-48.566406zm-160.480469 35.585938c19.417969-5.839844 44.390625-9.058594 70.328125-9.058594s50.910156 3.21875 70.328125 9.058594c16.125 4.851562 23.871094 10.160156 26.71875 12.980468-2.847656 2.824219-10.59375 8.132813-26.71875 12.984376-19.417969 5.839843-44.390625 9.058593-70.328125 9.058593s-50.910156-3.21875-70.328125-9.058593c-16.125-4.851563-23.871094-10.160157-26.71875-12.984376 2.847656-2.820312 10.59375-8.128906 26.71875-12.980468zm-236.085937 232.476562c19.546874-6.148437 44.550781-9.535156 70.414062-9.535156 25.9375 0 50.910156 3.21875 70.328125 9.058594 16.242187 4.886718 23.988281 10.238281 26.78125 13.046875-2.746094 2.875-10.433594 8.398437-26.695313 13.515625-19.546874 6.148437-44.550781 9.53125-70.414062 9.53125-25.9375 0-50.910156-3.214844-70.328125-9.058594-16.242187-4.886719-23.988281-10.238281-26.78125-13.042969 2.746094-2.878906 10.433594-8.402343 26.695313-13.515625zm140.742187 181.40625c-19.417969 5.839844-44.390625 9.058594-70.328125 9.058594s-50.910156-3.21875-70.328125-9.058594c-18.511719-5.570312-25.984375-11.742187-27.671875-14.0625v-30.769531c2.535156 1.039063 5.210938 2.054687 8.0625 3.035156 24.132812 8.296875 56.074219 12.863281 89.9375 12.863281 13.8125 0 27.363281-.753906 40.289062-2.242187 10.972657-1.261719 18.84375-11.183594 17.578126-22.15625-1.261719-10.972656-11.179688-18.84375-22.15625-17.582031-11.40625 1.316406-23.425782 1.980468-35.710938 1.980468-26.015625 0-50.960938-3.046874-70.238281-8.585937-18.425781-5.289063-25.988281-11.25-27.761719-13.542969v-31.25c2.472656 1.042969 5.074219 2.0625 7.847656 3.050782 24.386719 8.6875 56.40625 13.472656 90.152344 13.472656 33.644531 0 65.734375-5 90.359375-14.082032 2.695313-.996093 5.230469-2.015624 7.640625-3.058593v108.867187c-1.6875 2.320313-9.160156 8.492188-27.671875 14.0625zm236 0c-19.417969 5.839844-44.390625 9.058594-70.328125 9.058594s-50.910156-3.21875-70.328125-9.058594c-18.511719-5.570312-25.980469-11.742187-27.671875-14.0625v-30.589844c2.472656 1.046876 5.074219 2.066407 7.847656 3.054688 24.386719 8.6875 56.40625 13.472656 90.152344 13.472656 13.8125 0 27.40625-.796875 40.40625-2.375 10.964844-1.328125 18.777344-11.292968 17.449219-22.257812s-11.308594-18.785156-22.261719-17.449219c-11.40625 1.382813-23.382812 2.082031-35.59375 2.082031-25.9375 0-50.914062-3.21875-70.328125-9.058594-18.519531-5.574218-25.988281-11.746093-27.671875-14.0625v-31.375c2.472656 1.042969 5.074219 2.0625 7.847656 3.050782 24.386719 8.6875 56.402344 13.476562 90.152344 13.476562 13.8125 0 27.40625-.800781 40.402344-2.375 10.964844-1.328125 18.78125-11.292968 17.449218-22.257812-1.328124-10.96875-11.304687-18.78125-22.257812-17.449219-11.40625 1.378906-23.382812 2.082031-35.597656 2.082031-25.933594 0-50.910156-3.21875-70.324219-9.0625-18.519531-5.570312-25.988281-11.742187-27.675781-14.0625v-32.207031c2.476562 1.042969 5.078125 2.0625 7.851562 3.050781 24.386719 8.6875 56.402344 13.472656 90.148438 13.472656 13.816406 0 27.410156-.796874 40.40625-2.371093 10.964844-1.328125 18.777344-11.292969 17.449218-22.261719-1.328124-10.964844-11.304687-18.789062-22.257812-17.445312-11.410156 1.378906-23.382812 2.078124-35.597656 2.078124-25.9375 0-50.910156-3.214843-70.328125-9.058593-18.519531-5.570313-25.984375-11.742188-27.671875-14.0625v-30.441407c2.472656 1.042969 5.078125 2.0625 7.851562 3.050782 24.386719 8.6875 56.40625 13.472656 90.152344 13.472656 13.8125 0 27.40625-.796875 40.40625-2.371094 10.964844-1.328125 18.777344-11.296875 17.449219-22.261718-1.328125-10.964844-11.308594-18.78125-22.261719-17.449219-11.40625 1.382812-23.382812 2.082031-35.59375 2.082031-25.9375 0-50.910156-3.21875-70.328125-9.058594-18.519531-5.574218-25.988281-11.746094-27.671875-14.0625v-30.320312c2.472656 1.042968 5.074219 2.0625 7.847656 3.050781 24.386719 8.6875 56.40625 13.472656 90.152344 13.472656s65.765625-4.785156 90.152344-13.472656c2.769531-.988281 5.375-2.007813 7.847656-3.050781v341.320312c-1.6875 2.320313-9.160156 8.492188-27.671875 14.0625zm-405.40625-380.738281c-7.847656-7.773437-7.902344-20.4375-.125-28.28125l38.78125-39.132813c9.449219-9.535156 22.027344-14.789062 35.417969-14.789062s25.96875 5.25 35.417968 14.785156l38.789063 39.136719c7.777344 7.84375 7.722656 20.507813-.125 28.28125-7.84375 7.777344-20.507813 7.722656-28.28125-.125l-25.796875-26.023437v115.945312c0 11.046875-8.953125 20-20 20s-20-8.953125-20-20v-115.949219l-25.796875 26.027344c-3.90625 3.945313-9.054687 5.921875-14.203125 5.921875-5.089844 0-10.179688-1.929688-14.078125-5.796875zm0 0" fill="url(#a)"/></svg>